<?xml version="1.0" encoding="UTF-8"?>
<svg version="1.1" xmlns="http://www.w3.org/2000/svg" width="1334" height="590">
<path d="M0 0 C0.75843704 -0.00946152 1.51687408 -0.01892303 2.29829407 -0.02867126 C3.51805183 -0.03526512 3.51805183 -0.03526512 4.76245117 -0.04199219 C5.62303635 -0.0490065 6.48362152 -0.05602081 7.37028503 -0.06324768 C10.1820493 -0.08085849 12.99360229 -0.08711381 15.80541992 -0.08886719 C16.76843018 -0.08954193 17.73144043 -0.09021667 18.72363281 -0.09091187 C71.56171464 -0.03228811 142.19483811 7.93074493 182.11791992 46.97363281 C184.38019542 49.31463218 186.18044669 51.44242296 187.99291992 54.16113281 C187.66291992 55.15113281 187.33291992 56.14113281 186.99291992 57.16113281 C186.31003906 57.05043457 185.6271582 56.93973633 184.92358398 56.82568359 C112.45543326 45.16037491 34.34243843 47.03468965 -27.72143555 91.38623047 C-31.57567336 94.19914398 -35.30798812 97.1482459 -39.00708008 100.16113281 C-39.53897949 100.59006836 -40.07087891 101.01900391 -40.61889648 101.4609375 C-53.00741475 111.49522819 -64.29549093 122.48907535 -74.00708008 135.16113281 C-74.50788086 135.80195801 -75.00868164 136.4427832 -75.5246582 137.10302734 C-106.53354962 176.92583919 -126.93252624 225.21719449 -134.00708008 275.16113281 C-134.11020508 275.83047852 -134.21333008 276.49982422 -134.31958008 277.18945312 C-135.4272936 285.36675257 -135.25104696 293.6741879 -135.25708008 301.91113281 C-135.25775482 302.73782471 -135.25842957 303.5645166 -135.25912476 304.41625977 C-135.24252473 317.22837948 -134.66021747 329.58914423 -132.00708008 342.16113281 C-131.83547363 343.00949707 -131.66386719 343.85786133 -131.48706055 344.73193359 C-118.68311568 406.8751191 -77.68533503 463.92557002 -27.88598633 502.48925781 C-27.26594727 503.04097656 -26.6459082 503.59269531 -26.00708008 504.16113281 C-26.00708008 504.82113281 -26.00708008 505.48113281 -26.00708008 506.16113281 C-36.58306643 508.00433395 -46.80051762 508.52639048 -57.50708008 508.47363281 C-58.29666107 508.47147766 -59.08624207 508.46932251 -59.89974976 508.46710205 C-114.25369307 508.22980549 -164.80886938 486.51142787 -204.00708008 449.16113281 C-204.78567383 448.43539063 -205.56426758 447.70964844 -206.36645508 446.96191406 C-236.98260856 417.59429166 -257.19677438 373.52399767 -264.00708008 332.16113281 C-264.12277344 331.50209961 -264.2384668 330.84306641 -264.35766602 330.1640625 C-267.8257528 309.63340037 -266.9788635 287.22653775 -265.19458008 266.53613281 C-265.12464844 265.69791992 -265.0547168 264.85970703 -264.98266602 263.99609375 C-263.67531787 251.33408839 -258.76431499 243.04551183 -249.07739258 234.94238281 C-246.31033375 232.56166805 -243.79113179 229.97318637 -241.25708008 227.34863281 C-239.35119004 225.49568416 -237.4077954 223.77142216 -235.39208984 222.04174805 C-230.94682674 218.16206431 -226.76190942 214.06041621 -222.59692383 209.88378906 C-221.82578751 209.11360947 -221.05465118 208.34342987 -220.26014709 207.5499115 C-218.64127855 205.93171908 -217.02365457 204.31228069 -215.40722656 202.69165039 C-212.9513929 200.23046049 -210.49026643 197.77465473 -208.02856445 195.31933594 C-206.44686354 193.73697415 -204.86547291 192.15430214 -203.28442383 190.57128906 C-202.1950779 189.48497948 -202.1950779 189.48497948 -201.08372498 188.37672424 C-200.38932816 187.67917526 -199.69493134 186.98162628 -198.97949219 186.26293945 C-198.37962997 185.66228165 -197.77976776 185.06162384 -197.16172791 184.44276428 C-195.28182112 182.45206565 -193.48717351 180.42070602 -191.69641113 178.35046387 C-188.2765946 174.42228566 -184.69321795 170.70558731 -181.00537109 167.0300293 C-180.34420288 166.36710876 -179.68303467 165.70418823 -179.00183105 165.0211792 C-176.84070443 162.85569291 -174.6759897 160.69383644 -172.51098633 158.53222656 C-170.99301311 157.01357861 -169.47518826 155.49478233 -167.95750427 153.97584534 C-164.786117 150.80298906 -161.61294185 147.63193481 -158.43847656 144.4621582 C-154.38583302 140.41521143 -150.33769608 136.36379121 -146.29089451 132.31100368 C-143.16045891 129.17694093 -140.0276286 126.04528064 -136.89408684 122.91432381 C-135.40114042 121.4220407 -133.90892602 119.92902484 -132.41748238 118.43523979 C-130.32680456 116.34199992 -128.23290903 114.25203018 -126.13818359 112.1628418 C-125.53274216 111.55537613 -124.92730072 110.94791046 -124.30351257 110.32203674 C-121.33376008 107.36668629 -118.31282672 104.52849635 -115.13606262 101.79606628 C-110.4659572 97.75386104 -106.14730352 93.39638266 -101.81225586 89.00048828 C-100.92982208 88.11016907 -100.04738831 87.21984985 -99.13821411 86.30255127 C-97.23407994 84.38130208 -95.33085154 82.45919731 -93.42886734 80.53582382 C-90.41402714 77.48807371 -87.39298334 74.44652332 -84.37057495 71.40628052 C-83.33118617 70.36063207 -82.29179751 69.31498349 -81.25240898 68.26933479 C-80.73229484 67.74610453 -80.21218071 67.22287426 -79.67630553 66.68378854 C-72.65251255 59.61715756 -65.63337424 52.54599786 -58.62866211 45.46044922 C-53.88638881 40.66354583 -49.13515104 35.8757195 -44.37363422 31.09791481 C-41.86156965 28.57652284 -39.3542189 26.05082482 -36.85788345 23.51385117 C-34.07246467 20.68320789 -31.26743095 17.87250162 -28.46069336 15.06298828 C-27.64894653 14.23169403 -26.83719971 13.40039978 -26.00085449 12.54391479 C-18.62626734 5.22089417 -10.6556466 0.11086431 0 0 Z " fill="#FFFFFF" transform="translate(266.007080078125,-0.1611328125)"/>
<path d="M0 0 C1.69470252 1.52471716 3.38366321 3.05584399 5.06640625 4.59375 C7.22041759 6.54615436 9.41558976 8.43277359 11.6328125 10.3125 C15.64149091 13.81809726 19.02207671 17.68151144 22.4453125 21.75 C23.69828125 23.17119141 23.69828125 23.17119141 24.9765625 24.62109375 C55.01080916 58.87790289 73.55833293 105.59589461 73.61328125 151.27734375 C73.61660965 152.26513321 73.61993805 153.25292267 73.62336731 154.27064514 C73.62840482 156.35400939 73.63077662 158.43738162 73.63061523 160.52075195 C73.6327847 163.64744029 73.65092778 166.77376531 73.66992188 169.90039062 C73.70024485 179.19129381 73.61981605 188.4891319 72.87109375 197.75390625 C72.83525681 198.45273422 72.79941986 199.15156219 72.76249695 199.87156677 C71.7381165 210.00825208 60.74527797 217.59438658 53.95532227 224.36938477 C52.9128899 225.41317504 51.87066975 226.45717729 50.8286438 227.50137329 C48.01895157 230.31559359 45.20614249 233.12667853 42.39259458 235.93704343 C39.4360008 238.89108957 36.4818657 241.8475929 33.52732849 244.80369568 C28.56713415 249.76570473 23.60484571 254.72561221 18.64135742 259.68432617 C12.91877558 265.40146675 7.19980485 271.12220063 1.48269612 276.84481388 C-3.44306994 281.77513101 -8.37079843 286.70348037 -13.30014569 291.63021702 C-16.23674398 294.56526349 -19.17267964 297.50096423 -22.10684013 300.43844795 C-24.86660312 303.20111871 -27.62883745 305.96129533 -30.39292526 308.71963882 C-31.40151061 309.72691207 -32.40926489 310.73501831 -33.41608238 311.74405861 C-41.95065712 320.29572368 -41.95065712 320.29572368 -46.47358704 324.16096497 C-52.11346588 329.00696897 -57.25274653 334.37575617 -62.47167969 339.66455078 C-63.65506724 340.8597006 -64.8387402 342.05456788 -66.02267456 343.24917603 C-68.55882427 345.80870214 -71.09365136 348.36952842 -73.6276474 350.93118668 C-77.64195746 354.9879056 -81.66350229 359.03739975 -85.68682861 363.08517456 C-86.36799956 363.77053382 -87.04917051 364.45589308 -87.750983 365.1620208 C-89.14313696 366.56267726 -90.53531463 367.96331015 -91.92751551 369.36391997 C-101.28364727 378.77683102 -110.6356527 388.19367896 -119.96484375 397.63330078 C-126.27306493 404.0160863 -132.59373731 410.38624734 -138.92896771 416.74222934 C-142.27425614 420.09945557 -145.61298481 423.46265594 -148.93654633 426.84140396 C-152.06350931 430.02007606 -155.20673725 433.1817325 -158.36276627 436.33153915 C-159.51207037 437.48434097 -160.65545693 438.64308069 -161.79208755 439.80838013 C-172.3430737 450.6130155 -182.31564872 455.49335869 -197.48828125 455.91113281 C-199.32286505 455.93076275 -201.15751912 455.94446628 -202.9921875 455.953125 C-203.98160843 455.96018463 -204.97102936 455.96724426 -205.99043274 455.97451782 C-247.08527282 456.2010931 -247.08527282 456.2010931 -264.5546875 452.75 C-266.12524902 452.45198486 -266.12524902 452.45198486 -267.72753906 452.14794922 C-280.43940317 449.68633933 -292.9287688 446.55649793 -305.3046875 442.75 C-306.84854126 442.28847534 -306.84854126 442.28847534 -308.42358398 441.81762695 C-315.94079827 439.39755155 -321.38248867 436.39368836 -325.4921875 429.5 C-326.83146549 424.7731365 -327.38667685 420.61837331 -326.5546875 415.75 C-324.7421875 412.6875 -324.7421875 412.6875 -321.5546875 410.75 C-314.66270637 409.48168924 -307.57522225 409.69874783 -300.59814453 409.81567383 C-263.18019588 410.43128395 -227.2712433 403.05719604 -193.5546875 386.75 C-192.61713623 386.30068115 -192.61713623 386.30068115 -191.66064453 385.84228516 C-175.45645877 377.96398299 -160.12058247 367.57929697 -146.5546875 355.75 C-145.44175327 354.81703966 -144.32705232 353.88618427 -143.2109375 352.95703125 C-132.54257039 344.02680172 -122.39510959 334.5254501 -113.5546875 323.75 C-112.74773437 322.7703125 -111.94078125 321.790625 -111.109375 320.78125 C-79.16234544 281.38068633 -61.68426771 235.07506477 -56.5546875 184.75 C-56.42320312 183.50605469 -56.29171875 182.26210938 -56.15625 180.98046875 C-50.43735255 115.83140726 -72.11374645 54.16776312 -113.7421875 4.4375 C-128.03610007 -12.37390138 -143.29318007 -28.25596338 -161.41015625 -40.9453125 C-164.07252228 -42.89661182 -166.31561862 -44.83869505 -168.5546875 -47.25 C-138.72802702 -77.07666048 -26.24929781 -23.11864762 0 0 Z " fill="#FFFFFF" transform="translate(514.5546875,134.25)"/>
<path d="M0 0 C1.24986586 1.05938526 2.47939905 2.14322365 3.6875 3.25 C4.31785156 3.77851563 4.94820312 4.30703125 5.59765625 4.8515625 C11.97644023 10.60895401 15.99798646 17.82840902 20.38427734 25.11328125 C22.45936039 28.51551558 24.63490754 31.85030021 26.8125 35.1875 C31.47093833 42.35374363 36.08464167 49.54794402 40.6875 56.75 C45.87306152 64.86357607 51.07267955 72.96731188 56.32617188 81.03710938 C58.51375947 84.40397066 60.64791913 87.79129329 62.6875 91.25 C68.66249582 82.1294376 74.38671008 72.87152959 80.03955078 63.54858398 C85.22152415 55.0038992 90.45454657 46.49149338 95.70068359 37.98608398 C99.03147265 32.58135387 102.3489398 27.16930209 105.63671875 21.73828125 C106.5812793 20.17883789 106.5812793 20.17883789 107.54492188 18.58789062 C108.72705964 16.63364154 109.90691155 14.67800707 111.08398438 12.72070312 C112.12953199 10.99245211 113.18599944 9.27074078 114.25537109 7.55712891 C115.16010054 6.09962919 116.03703911 4.62416814 116.87353516 3.12646484 C118.93368981 -0.28196315 120.58832554 -2.10862003 124.4921875 -3.16796875 C130.81824182 -4.13426766 137.25476677 -4.08511954 143.64160156 -4.06567383 C145.78763788 -4.06253635 147.93226042 -4.08595805 150.078125 -4.11132812 C159.22928773 -4.15639156 169.04589963 -4.03607293 177.6875 -0.75 C179.72705078 1.54956055 179.72705078 1.54956055 180.6875 4.25 C179.78541415 7.81737078 177.90487793 10.70080198 175.921875 13.77734375 C175.36902832 14.64012939 174.81618164 15.50291504 174.24658203 16.3918457 C173.64958496 17.31441162 173.05258789 18.23697754 172.4375 19.1875 C171.15873297 21.17960971 169.8800905 23.17179938 168.6015625 25.1640625 C167.62171387 26.68628418 167.62171387 26.68628418 166.62207031 28.23925781 C163.66834769 32.83609116 160.74149056 37.44988663 157.8125 42.0625 C152.10885488 51.030541 146.38113678 59.98306075 140.64892578 68.93286133 C136.31713622 75.69808201 131.99719102 82.47068309 127.6875 89.25 C123.29084236 96.16543795 118.88616686 103.07565063 114.46826172 109.97753906 C113.08868509 112.13427398 111.71135113 114.29244534 110.33642578 116.45214844 C107.48133475 120.93014076 104.61791285 125.39152816 101.60546875 129.765625 C101.1669458 130.41144531 100.72842285 131.05726563 100.27661133 131.72265625 C99.16446329 133.35073542 98.03241537 134.96517453 96.8984375 136.578125 C95.41755895 139.14385341 95.41755895 139.14385341 96.1953125 141.6484375 C98.12888953 145.019543 100.10258843 148.34501506 102.1875 151.625 C102.63472412 152.33414551 103.08194824 153.04329102 103.54272461 153.77392578 C106.77463288 158.87395305 110.09167585 163.91258016 113.45874023 168.92407227 C117.60690555 175.10357587 121.68034344 181.33108227 125.75 187.5625 C126.11239777 188.1173407 126.47479553 188.6721814 126.84817505 189.24383545 C128.715739 192.10322263 130.58285302 194.96290318 132.44970703 197.82275391 C136.02585348 203.30054052 139.60699836 208.77505962 143.1875 214.25 C144.60679718 216.42055569 146.02606798 218.59112863 147.4453125 220.76171875 C148.14688477 221.83470215 148.84845703 222.90768555 149.57128906 224.01318359 C151.6701597 227.22347742 153.76871538 230.43397692 155.8671875 233.64453125 C156.5590918 234.70293213 157.25099609 235.76133301 157.96386719 236.85180664 C159.35811689 238.98486595 160.75199971 241.11816512 162.14550781 243.25170898 C165.58719441 248.51885788 169.0350222 253.78170514 172.49856567 259.03450012 C174.22659028 261.65556692 175.95233545 264.27813131 177.67803955 266.90072632 C178.50527111 268.1564065 179.33364582 269.41133448 180.16326904 270.66543579 C184.60832804 277.38530038 188.93682607 284.11090668 192.6875 291.25 C178.72920671 301.43945124 161.19991446 308.2514188 143.6875 306.25 C129.70745629 303.48688548 120.83496381 295.96374368 112.77392578 284.53759766 C110.71312902 281.44050279 108.69349891 278.32035995 106.6875 275.1875 C105.94010122 274.03083097 105.19204208 272.87458839 104.44335938 271.71875 C102.91890396 269.36371825 101.39759104 267.00670615 99.87890625 264.64794922 C96.67034606 259.667689 93.42766951 254.70972742 90.1875 249.75 C88.96469462 247.87509725 87.74204017 246.00009606 86.51953125 244.125 C82.67457738 238.22973826 78.8293165 232.33467967 74.98019409 226.44213867 C73.88950691 224.77221121 72.79936402 223.10192828 71.70922852 221.43164062 C68.6285916 216.7180978 65.54022806 212.01156321 62.390625 207.34375 C61.91471924 206.63798828 61.43881348 205.93222656 60.94848633 205.20507812 C60.09589621 203.94561646 59.2392651 202.68887615 58.37768555 201.43554688 C55.6875 197.46741874 55.6875 197.46741874 55.6875 195.25 C52.90424329 197.75498395 51.15794338 200.55204195 49.23828125 203.75390625 C48.56345703 204.87345703 47.88863281 205.99300781 47.19335938 207.14648438 C46.65811646 208.04113403 46.65811646 208.04113403 46.11206055 208.95385742 C44.5946316 211.49001255 43.06777311 214.02044113 41.54122925 216.55111694 C40.75182213 217.85978742 39.96286589 219.16872998 39.17434692 220.47793579 C35.38746575 226.76141491 31.54260226 233.00813022 27.6875 239.25 C22.4518345 247.73655196 17.25236437 256.2438777 12.08529663 264.77227783 C11.01157678 266.54340384 9.93639201 268.31363069 8.8605957 270.08349609 C8.33774742 270.94370361 8.33774742 270.94370361 7.80433655 271.82128906 C7.45898361 272.38944336 7.11363068 272.95759766 6.7578125 273.54296875 C4.11465869 277.89208991 1.4861158 282.24953803 -1.1328125 286.61328125 C-2.29645582 288.53410817 -3.4604943 290.45469578 -4.625 292.375 C-5.14602295 293.25196533 -5.6670459 294.12893066 -6.20385742 295.0324707 C-6.68959229 295.8287085 -7.17532715 296.62494629 -7.67578125 297.4453125 C-8.29900269 298.48196045 -8.29900269 298.48196045 -8.93481445 299.53955078 C-11.40390353 302.60501916 -13.94980798 303.18577758 -17.75390625 303.859375 C-34.85137836 305.64455804 -55.25828032 306.26990594 -71.3125 299.25 C-72.43282749 294.87002619 -72.60399064 292.83819812 -70.56640625 288.7265625 C-69.6879188 287.429877 -68.78914469 286.14679911 -67.875 284.875 C-66.8537036 283.37880753 -65.83429005 281.8813287 -64.81640625 280.3828125 C-64.2558252 279.56844727 -63.69524414 278.75408203 -63.11767578 277.91503906 C-59.74116957 272.93019435 -56.54174582 267.83092498 -53.3125 262.75 C-48.4095332 255.07564193 -43.48780669 247.41417265 -38.53076172 239.7746582 C-34.47243223 233.51299962 -30.45528791 227.22522458 -26.4375 220.9375 C-21.0786559 212.55236682 -15.68592286 204.19094406 -10.25097656 195.85498047 C-5.1711184 188.05388136 -0.14946383 180.21579736 4.84936523 172.36254883 C7.91539788 167.5509191 10.99865062 162.75739204 14.18359375 158.0234375 C14.96742432 156.84914185 14.96742432 156.84914185 15.76708984 155.65112305 C16.72689632 154.21836616 17.69667868 152.7922211 18.67822266 151.37426758 C21.05634054 148.09922208 21.05634054 148.09922208 21.41088867 144.24731445 C20.2278862 140.98098195 18.30328979 138.15923938 16.4375 135.25 C15.99422363 134.5499585 15.55094727 133.84991699 15.09423828 133.12866211 C11.0868065 126.82148738 7.00789768 120.56004461 2.92431641 114.30200195 C-1.48647125 107.5392615 -5.84338004 100.743218 -10.1875 93.9375 C-15.9616993 84.89502933 -21.79352556 75.89271522 -27.66748047 66.91479492 C-32.93302546 58.85645563 -38.13026494 50.75558246 -43.29467773 42.63208008 C-46.70321502 37.28108367 -50.15489281 31.96668391 -53.69140625 26.69921875 C-54.39330078 25.64734375 -55.09519531 24.59546875 -55.81835938 23.51171875 C-57.1619729 21.50331638 -58.51573911 19.50165904 -59.88085938 17.5078125 C-60.47833984 16.61191406 -61.07582031 15.71601563 -61.69140625 14.79296875 C-62.2232251 14.00946045 -62.75504395 13.22595215 -63.30297852 12.41870117 C-64.3125 10.25 -64.3125 10.25 -64.14746094 8.09106445 C-62.74897355 5.00744065 -59.86081244 3.80123791 -57 2.25 C-56.37351562 1.90187256 -55.74703125 1.55374512 -55.1015625 1.19506836 C-38.57245632 -7.71854433 -16.29369965 -11.62474478 0 0 Z " fill="#FFFFFF" transform="translate(1141.3125,189.75)"/>
<path d="M0 0 C1.80791016 -0.05607422 1.80791016 -0.05607422 3.65234375 -0.11328125 C4.81378906 -0.12488281 5.97523438 -0.13648437 7.171875 -0.1484375 C8.21956055 -0.16825684 9.26724609 -0.18807617 10.34667969 -0.20849609 C14.41733209 0.60960509 15.70561854 2.11579105 18.25 5.375 C18.94983089 8.32569014 18.88355494 11.1838465 18.81762695 14.2043457 C18.81835709 15.08289719 18.81908722 15.96144867 18.81983948 16.86662292 C18.81636423 19.7619769 18.7775064 22.65570937 18.73828125 25.55078125 C18.72895289 27.56144838 18.72183689 29.57212689 18.71684265 31.58280945 C18.69777472 36.86849481 18.64867523 42.15349048 18.59332275 47.43890381 C18.54212613 52.83482534 18.5193277 58.23085859 18.49414062 63.62695312 C18.44055667 74.20993803 18.35524596 84.79241161 18.25 95.375 C19.10111359 95.34994385 19.95222717 95.3248877 20.82913208 95.29907227 C28.86225442 95.06273894 36.89540094 94.82724843 44.92857552 94.59269714 C49.0581917 94.47209175 53.18779791 94.35116408 57.31738281 94.22949219 C61.30495908 94.11201636 65.29255957 93.99539715 69.28017807 93.87936401 C70.79916141 93.83501495 72.31813587 93.79036073 73.83710098 93.74539185 C75.96966549 93.68231029 78.1022594 93.62032798 80.23486328 93.55859375 C81.4473172 93.52306396 82.65977112 93.48753418 83.90896606 93.45092773 C87.02413275 93.38013302 90.13417541 93.36104251 93.25 93.375 C96.46519078 107.59456398 100.08726933 127.70046134 93.25 141.375 C85.833694 141.3984055 78.41739625 141.41605624 71.00106049 141.42681217 C67.55554376 141.43198038 64.11005273 141.43896444 60.66455078 141.45043945 C56.68261501 141.46361456 52.70070524 141.46827818 48.71875 141.47265625 C47.51077759 141.47781754 46.30280518 141.48297882 45.05822754 141.48829651 C38.61607654 141.48870886 32.22360256 141.29544832 25.79797363 140.86790466 C25.06747929 140.82072155 24.33698494 140.77353843 23.5843544 140.72492552 C21.80613443 140.60984661 20.02805188 140.49264744 18.25 140.375 C18.28718432 165.12296005 18.34707123 189.87077535 18.43390274 214.61861324 C18.47369323 226.10975818 18.50608572 237.60083464 18.52099609 249.09204102 C18.5340125 259.10907557 18.56097706 269.12595943 18.60461307 279.14290911 C18.62722794 284.44565327 18.64291065 289.74821156 18.64188385 295.05100822 C18.64113727 300.0456296 18.65908773 305.03984011 18.69116783 310.03435516 C18.69966281 311.86403339 18.7014195 313.69375771 18.69580269 315.52344704 C18.34889043 329.68280505 18.34889043 329.68280505 24.62628555 341.93508816 C31.10680925 347.89109272 38.48972122 347.69902296 46.7734375 347.7890625 C48.42540634 347.81811172 48.42540634 347.81811172 50.11074829 347.8477478 C53.61542099 347.90734928 57.12012688 347.95385162 60.625 348 C63.00652445 348.03819762 65.38803534 348.07725039 67.76953125 348.1171875 C73.59623354 348.21303488 79.42301799 348.29813901 85.25 348.375 C85.73660891 349.80854454 86.22095359 351.24285779 86.7043457 352.67749023 C86.97430862 353.47613998 87.24427155 354.27478973 87.52241516 355.09764099 C91.56655326 367.75589585 91.1101762 382.35376661 89.25 395.375 C69.62154368 398.67567065 49.947651 399.57542326 30.07717896 399.67254639 C28.08893013 399.68240863 26.10069799 399.69683296 24.11251831 399.71612549 C9.77771371 399.8377975 -4.06441229 399.6127707 -17.0625 392.75 C-17.73345703 392.399375 -18.40441406 392.04875 -19.09570312 391.6875 C-28.04390007 386.80194039 -33.44302725 380.64693683 -38.125 371.6875 C-38.44726562 371.07712891 -38.76953125 370.46675781 -39.1015625 369.83789062 C-45.3963723 356.78149488 -45.17301713 342.81958467 -45.09057617 328.69189453 C-45.08972834 326.64059461 -45.09020808 324.58929378 -45.09190369 322.53799438 C-45.09275897 317.00999284 -45.07520929 311.48218944 -45.05418181 305.95423365 C-45.03533667 300.16203491 -45.03365842 294.36983086 -45.03010559 288.5776062 C-45.02080805 277.62741189 -44.99622545 266.6773082 -44.96605712 255.72715366 C-44.93244155 243.25307669 -44.91600915 230.77899523 -44.90097082 218.3048842 C-44.86967372 192.66152776 -44.81469045 167.01829544 -44.75 141.375 C-59.93 141.375 -75.11 141.375 -90.75 141.375 C-93.08919076 126.17026005 -93.08919076 126.17026005 -93 118.4375 C-92.99540771 117.5921167 -92.99081543 116.7467334 -92.98608398 115.87573242 C-92.70669848 96.33169848 -92.70669848 96.33169848 -89.75 93.375 C-86.68082323 93.3455732 -83.63720844 93.37987282 -80.5703125 93.4609375 C-79.64660858 93.48217682 -78.72290466 93.50341614 -77.77120972 93.52529907 C-75.81241887 93.57165695 -73.85368763 93.62059258 -71.89501953 93.671875 C-68.89498297 93.74948306 -65.89484153 93.81674158 -62.89453125 93.8828125 C-60.99477638 93.92906395 -59.0950361 93.97591909 -57.1953125 94.0234375 C-56.29523468 94.04328705 -55.39515686 94.0631366 -54.46780396 94.08358765 C-53.63038666 94.10676056 -52.79296936 94.12993347 -51.93017578 94.15380859 C-51.19372833 94.17236908 -50.45728088 94.19092957 -49.69851685 94.21005249 C-47.75 94.375 -47.75 94.375 -44.75 95.375 C-44.75666183 94.57701492 -44.76332367 93.77902985 -44.77018738 92.9568634 C-44.83066796 85.38211699 -44.87616015 77.8074901 -44.90543652 70.23256397 C-44.9209945 66.33958829 -44.9420486 62.44681457 -44.97631836 58.55395508 C-45.00926877 54.78675583 -45.02692688 51.01974901 -45.03463173 47.25241661 C-45.04011204 45.82572087 -45.05081056 44.39903389 -45.06719017 42.97242165 C-45.20572897 30.38869638 -44.74964145 17.08956624 -35.75 7.375 C-25.6976833 -0.54912352 -12.12131448 0.1444577 0 0 Z " fill="#FFFFFF" transform="translate(778.75,93.625)"/>
<path d="M0 0 C0.68320312 0.55171875 1.36640625 1.1034375 2.0703125 1.671875 C12.89256052 11.30079529 17.27174777 25.57411247 18.16950202 39.65939593 C18.44036777 47.23288565 18.37609039 54.80952043 18.34057617 62.38647461 C18.33972868 64.93052663 18.34020742 67.47457938 18.34190369 70.01863098 C18.34258347 75.46797619 18.33415928 80.91718235 18.31719017 86.36649895 C18.29267278 94.24499015 18.28498197 102.12342942 18.2812262 110.00195462 C18.27468154 122.78836081 18.25477467 135.57470915 18.22631836 148.36108398 C18.19872611 160.77221388 18.17751791 173.18332799 18.16479492 185.59448242 C18.16400675 186.36118643 18.16321858 187.12789044 18.16240653 187.9178279 C18.15849104 191.76465867 18.15470001 195.61148955 18.15097082 199.4583205 C18.11993684 231.30558941 18.06693054 263.15278566 18 295 C16.27238922 295.33201444 14.54380363 295.65895855 12.81483459 295.98382568 C11.85233827 296.16644833 10.88984194 296.34907097 9.89817905 296.53722763 C5.54636029 297.23211274 1.26918678 297.286513 -3.12890625 297.265625 C-4.50162941 297.26849518 -4.50162941 297.26849518 -5.90208435 297.27142334 C-7.81875894 297.27277241 -9.73544306 297.26916634 -11.65209961 297.26074219 C-14.55929359 297.25001183 -17.46587153 297.26068781 -20.37304688 297.2734375 C-22.25000134 297.27211592 -24.12695543 297.26955356 -26.00390625 297.265625 C-26.85835831 297.26967346 -27.71281036 297.27372192 -28.59315491 297.27789307 C-32.96138316 297.24449793 -37.02504154 296.88138067 -41.30674744 295.98382568 C-42.19058578 295.80053585 -43.07442411 295.61724602 -43.98504543 295.42840195 C-44.64998044 295.2870293 -45.31491545 295.14565666 -46 295 C-46.00238835 293.81539562 -46.00477671 292.63079124 -46.00723743 291.41028976 C-46.06466499 263.255639 -46.13744348 235.10105802 -46.22898628 206.94649725 C-46.24025371 203.47702717 -46.25139228 200.00755669 -46.26245117 196.53808594 C-46.26465486 195.84741104 -46.26685854 195.15673613 -46.269129 194.44513169 C-46.30444873 183.27909242 -46.32934286 172.11305322 -46.35034702 160.9469789 C-46.37215159 149.47950705 -46.40546645 138.01212124 -46.44870156 126.54470754 C-46.47260844 120.10786453 -46.4913539 113.67110115 -46.49761391 107.23421478 C-46.50367611 101.17019247 -46.52371742 95.10637386 -46.55427551 89.04242706 C-46.56303747 86.82215287 -46.56678216 84.60185205 -46.56500816 82.38156128 C-46.16571421 63.3608347 -46.16571421 63.3608347 -53 46 C-60.61688496 39.8843683 -70.67757864 39.72459656 -80 39 C-83.44686143 23.01723181 -83.59183713 9.00507737 -80 -7 C-67.16895831 -19.83104169 -12.95660849 -11.13539846 0 0 Z " fill="#FFFFFF" transform="translate(1000,196)"/>
<path d="M0 0 C8.19263446 8.19263446 7.74723165 21.57234461 7.75097656 32.38110352 C7.64547715 41.59391946 7.2734525 52.54829875 0.5 59.5 C-13.50700903 68.41084192 -35.73054062 67.35072661 -51.4375 64.25 C-63.50374314 61.09152622 -63.50374314 61.09152622 -66.796875 56.81640625 C-71.38457933 48.55521403 -71.86685451 38.86607821 -71.8125 29.625 C-71.80903564 28.66408447 -71.80557129 27.70316895 -71.80200195 26.71313477 C-71.6642771 17.70927713 -70.83723627 9.03789768 -65.5 1.5 C-48.79475633 -9.80763937 -17.6496312 -7.56412766 0 0 Z " fill="#FFFFFF" transform="translate(1006.5,74.5)"/>
</svg>
